<svg xmlns="http://www.w3.org/2000/svg" xmlns:xlink="http://www.w3.org/1999/xlink" width="512" zoomAndPan="magnify" viewBox="0 0 384 383.999986" height="512" preserveAspectRatio="xMidYMid meet" version="1.0"><defs><clipPath id="a3c53ba858"><path d="M 64.472656 192 L 97.597656 192 L 97.597656 225.125 L 64.472656 225.125 Z M 64.472656 192 " clip-rule="nonzero"/></clipPath><clipPath id="d33ba2540d"><path d="M 81.035156 192 C 71.886719 192 64.472656 199.414062 64.472656 208.5625 C 64.472656 217.710938 71.886719 225.125 81.035156 225.125 C 90.179688 225.125 97.597656 217.710938 97.597656 208.5625 C 97.597656 199.414062 90.179688 192 81.035156 192 Z M 81.035156 192 " clip-rule="nonzero"/></clipPath><clipPath id="4ae74f7609"><path d="M 0.472656 0 L 33.597656 0 L 33.597656 33.125 L 0.472656 33.125 Z M 0.472656 0 " clip-rule="nonzero"/></clipPath><clipPath id="0708f68016"><path d="M 17.035156 0 C 7.886719 0 0.472656 7.414062 0.472656 16.5625 C 0.472656 25.710938 7.886719 33.125 17.035156 33.125 C 26.179688 33.125 33.597656 25.710938 33.597656 16.5625 C 33.597656 7.414062 26.179688 0 17.035156 0 Z M 17.035156 0 " clip-rule="nonzero"/></clipPath><clipPath id="ab3121bf5f"><rect x="0" width="34" y="0" height="34"/></clipPath><clipPath id="51ba94ecb5"><path d="M 78.78125 230.347656 L 111.90625 230.347656 L 111.90625 263.472656 L 78.78125 263.472656 Z M 78.78125 230.347656 " clip-rule="nonzero"/></clipPath><clipPath id="400ee57e1f"><path d="M 95.34375 230.347656 C 86.199219 230.347656 78.78125 237.761719 78.78125 246.910156 C 78.78125 256.058594 86.199219 263.472656 95.34375 263.472656 C 104.492188 263.472656 111.90625 256.058594 111.90625 246.910156 C 111.90625 237.761719 104.492188 230.347656 95.34375 230.347656 Z M 95.34375 230.347656 " clip-rule="nonzero"/></clipPath><clipPath id="c42c1e7410"><path d="M 0.78125 0.347656 L 33.90625 0.347656 L 33.90625 33.472656 L 0.78125 33.472656 Z M 0.78125 0.347656 " clip-rule="nonzero"/></clipPath><clipPath id="cb7e8093ce"><path d="M 17.34375 0.347656 C 8.199219 0.347656 0.78125 7.761719 0.78125 16.910156 C 0.78125 26.058594 8.199219 33.472656 17.34375 33.472656 C 26.492188 33.472656 33.90625 26.058594 33.90625 16.910156 C 33.90625 7.761719 26.492188 0.347656 17.34375 0.347656 Z M 17.34375 0.347656 " clip-rule="nonzero"/></clipPath><clipPath id="8f154ca809"><rect x="0" width="34" y="0" height="34"/></clipPath><clipPath id="57320e8bd0"><path d="M 97.597656 267.113281 L 130.722656 267.113281 L 130.722656 300.238281 L 97.597656 300.238281 Z M 97.597656 267.113281 " clip-rule="nonzero"/></clipPath><clipPath id="bc230b2ac9"><path d="M 114.160156 267.113281 C 105.011719 267.113281 97.597656 274.53125 97.597656 283.675781 C 97.597656 292.824219 105.011719 300.238281 114.160156 300.238281 C 123.304688 300.238281 130.722656 292.824219 130.722656 283.675781 C 130.722656 274.53125 123.304688 267.113281 114.160156 267.113281 Z M 114.160156 267.113281 " clip-rule="nonzero"/></clipPath><clipPath id="f0d8684c52"><path d="M 0.597656 0.113281 L 33.722656 0.113281 L 33.722656 33.238281 L 0.597656 33.238281 Z M 0.597656 0.113281 " clip-rule="nonzero"/></clipPath><clipPath id="18860ae549"><path d="M 17.160156 0.113281 C 8.011719 0.113281 0.597656 7.53125 0.597656 16.675781 C 0.597656 25.824219 8.011719 33.238281 17.160156 33.238281 C 26.304688 33.238281 33.722656 25.824219 33.722656 16.675781 C 33.722656 7.53125 26.304688 0.113281 17.160156 0.113281 Z M 17.160156 0.113281 " clip-rule="nonzero"/></clipPath><clipPath id="923c3c62bf"><rect x="0" width="34" y="0" height="34"/></clipPath><clipPath id="153bc93caa"><path d="M 122.371094 230.347656 L 155.496094 230.347656 L 155.496094 263.472656 L 122.371094 263.472656 Z M 122.371094 230.347656 " clip-rule="nonzero"/></clipPath><clipPath id="035c434d83"><path d="M 138.933594 230.347656 C 129.789062 230.347656 122.371094 237.761719 122.371094 246.910156 C 122.371094 256.058594 129.789062 263.472656 138.933594 263.472656 C 148.082031 263.472656 155.496094 256.058594 155.496094 246.910156 C 155.496094 237.761719 148.082031 230.347656 138.933594 230.347656 Z M 138.933594 230.347656 " clip-rule="nonzero"/></clipPath><clipPath id="d4c36a6470"><path d="M 0.371094 0.347656 L 33.496094 0.347656 L 33.496094 33.472656 L 0.371094 33.472656 Z M 0.371094 0.347656 " clip-rule="nonzero"/></clipPath><clipPath id="f3638f6600"><path d="M 16.933594 0.347656 C 7.789062 0.347656 0.371094 7.761719 0.371094 16.910156 C 0.371094 26.058594 7.789062 33.472656 16.933594 33.472656 C 26.082031 33.472656 33.496094 26.058594 33.496094 16.910156 C 33.496094 7.761719 26.082031 0.347656 16.933594 0.347656 Z M 16.933594 0.347656 " clip-rule="nonzero"/></clipPath><clipPath id="a69bf18017"><rect x="0" width="34" y="0" height="34"/></clipPath><clipPath id="bcd55bd7bc"><path d="M 138.933594 192 L 172.0625 192 L 172.0625 225.125 L 138.933594 225.125 Z M 138.933594 192 " clip-rule="nonzero"/></clipPath><clipPath id="cc5cd76d88"><path d="M 155.496094 192 C 146.351562 192 138.933594 199.414062 138.933594 208.5625 C 138.933594 217.710938 146.351562 225.125 155.496094 225.125 C 164.644531 225.125 172.0625 217.710938 172.0625 208.5625 C 172.0625 199.414062 164.644531 192 155.496094 192 Z M 155.496094 192 " clip-rule="nonzero"/></clipPath><clipPath id="e63913ee7f"><path d="M 0.933594 0 L 34.0625 0 L 34.0625 33.125 L 0.933594 33.125 Z M 0.933594 0 " clip-rule="nonzero"/></clipPath><clipPath id="aac2729f9f"><path d="M 17.496094 0 C 8.351562 0 0.933594 7.414062 0.933594 16.5625 C 0.933594 25.710938 8.351562 33.125 17.496094 33.125 C 26.644531 33.125 34.0625 25.710938 34.0625 16.5625 C 34.0625 7.414062 26.644531 0 17.496094 0 Z M 17.496094 0 " clip-rule="nonzero"/></clipPath><clipPath id="e2c84b56db"><rect x="0" width="35" y="0" height="34"/></clipPath><clipPath id="b958a926de"><path d="M 157.273438 155.210938 L 190.402344 155.210938 L 190.402344 188.335938 L 157.273438 188.335938 Z M 157.273438 155.210938 " clip-rule="nonzero"/></clipPath><clipPath id="a23d88b8d7"><path d="M 173.839844 155.210938 C 164.691406 155.210938 157.273438 162.625 157.273438 171.773438 C 157.273438 180.921875 164.691406 188.335938 173.839844 188.335938 C 182.984375 188.335938 190.402344 180.921875 190.402344 171.773438 C 190.402344 162.625 182.984375 155.210938 173.839844 155.210938 Z M 173.839844 155.210938 " clip-rule="nonzero"/></clipPath><clipPath id="5203904f71"><path d="M 0.273438 0.210938 L 33.402344 0.210938 L 33.402344 33.335938 L 0.273438 33.335938 Z M 0.273438 0.210938 " clip-rule="nonzero"/></clipPath><clipPath id="7190cccbd4"><path d="M 16.839844 0.210938 C 7.691406 0.210938 0.273438 7.625 0.273438 16.773438 C 0.273438 25.921875 7.691406 33.335938 16.839844 33.335938 C 25.984375 33.335938 33.402344 25.921875 33.402344 16.773438 C 33.402344 7.625 25.984375 0.210938 16.839844 0.210938 Z M 16.839844 0.210938 " clip-rule="nonzero"/></clipPath><clipPath id="649db29601"><rect x="0" width="34" y="0" height="34"/></clipPath><clipPath id="dbb149283e"><path d="M 175.4375 119.980469 L 208.5625 119.980469 L 208.5625 153.105469 L 175.4375 153.105469 Z M 175.4375 119.980469 " clip-rule="nonzero"/></clipPath><clipPath id="fae31b0ff8"><path d="M 192 119.980469 C 182.851562 119.980469 175.4375 127.394531 175.4375 136.542969 C 175.4375 145.691406 182.851562 153.105469 192 153.105469 C 201.148438 153.105469 208.5625 145.691406 208.5625 136.542969 C 208.5625 127.394531 201.148438 119.980469 192 119.980469 Z M 192 119.980469 " clip-rule="nonzero"/></clipPath><clipPath id="a1bfa2c97d"><path d="M 0.4375 0.980469 L 33.5625 0.980469 L 33.5625 34.105469 L 0.4375 34.105469 Z M 0.4375 0.980469 " clip-rule="nonzero"/></clipPath><clipPath id="39f126227b"><path d="M 17 0.980469 C 7.851562 0.980469 0.4375 8.394531 0.4375 17.542969 C 0.4375 26.691406 7.851562 34.105469 17 34.105469 C 26.148438 34.105469 33.5625 26.691406 33.5625 17.542969 C 33.5625 8.394531 26.148438 0.980469 17 0.980469 Z M 17 0.980469 " clip-rule="nonzero"/></clipPath><clipPath id="8478ce14e8"><rect x="0" width="34" y="0" height="35"/></clipPath><clipPath id="dceb1c3178"><path d="M 195.625 157.273438 L 228.75 157.273438 L 228.75 190.398438 L 195.625 190.398438 Z M 195.625 157.273438 " clip-rule="nonzero"/></clipPath><clipPath id="33837e1ecc"><path d="M 212.1875 157.273438 C 203.039062 157.273438 195.625 164.6875 195.625 173.835938 C 195.625 182.980469 203.039062 190.398438 212.1875 190.398438 C 221.335938 190.398438 228.75 182.980469 228.75 173.835938 C 228.75 164.6875 221.335938 157.273438 212.1875 157.273438 Z M 212.1875 157.273438 " clip-rule="nonzero"/></clipPath><clipPath id="910344a79f"><path d="M 0.625 0.273438 L 33.75 0.273438 L 33.75 33.398438 L 0.625 33.398438 Z M 0.625 0.273438 " clip-rule="nonzero"/></clipPath><clipPath id="e247936796"><path d="M 17.1875 0.273438 C 8.039062 0.273438 0.625 7.6875 0.625 16.835938 C 0.625 25.980469 8.039062 33.398438 17.1875 33.398438 C 26.335938 33.398438 33.75 25.980469 33.75 16.835938 C 33.75 7.6875 26.335938 0.273438 17.1875 0.273438 Z M 17.1875 0.273438 " clip-rule="nonzero"/></clipPath><clipPath id="e9149dc079"><rect x="0" width="34" y="0" height="34"/></clipPath><clipPath id="86f78593e1"><path d="M 213.253906 194.5625 L 246.382812 194.5625 L 246.382812 227.691406 L 213.253906 227.691406 Z M 213.253906 194.5625 " clip-rule="nonzero"/></clipPath><clipPath id="e3f5561615"><path d="M 229.820312 194.5625 C 220.671875 194.5625 213.253906 201.980469 213.253906 211.128906 C 213.253906 220.273438 220.671875 227.691406 229.820312 227.691406 C 238.964844 227.691406 246.382812 220.273438 246.382812 211.128906 C 246.382812 201.980469 238.964844 194.5625 229.820312 194.5625 Z M 229.820312 194.5625 " clip-rule="nonzero"/></clipPath><clipPath id="d101d2d86b"><path d="M 0.253906 0.5625 L 33.382812 0.5625 L 33.382812 33.691406 L 0.253906 33.691406 Z M 0.253906 0.5625 " clip-rule="nonzero"/></clipPath><clipPath id="ff4845c4cb"><path d="M 16.820312 0.5625 C 7.671875 0.5625 0.253906 7.980469 0.253906 17.128906 C 0.253906 26.273438 7.671875 33.691406 16.820312 33.691406 C 25.964844 33.691406 33.382812 26.273438 33.382812 17.128906 C 33.382812 7.980469 25.964844 0.5625 16.820312 0.5625 Z M 16.820312 0.5625 " clip-rule="nonzero"/></clipPath><clipPath id="a43051c030"><rect x="0" width="34" y="0" height="34"/></clipPath><clipPath id="8ca96c37f4"><path d="M 229.820312 230.347656 L 262.945312 230.347656 L 262.945312 263.472656 L 229.820312 263.472656 Z M 229.820312 230.347656 " clip-rule="nonzero"/></clipPath><clipPath id="b08b8b4c52"><path d="M 246.382812 230.347656 C 237.234375 230.347656 229.820312 237.761719 229.820312 246.910156 C 229.820312 256.058594 237.234375 263.472656 246.382812 263.472656 C 255.527344 263.472656 262.945312 256.058594 262.945312 246.910156 C 262.945312 237.761719 255.527344 230.347656 246.382812 230.347656 Z M 246.382812 230.347656 " clip-rule="nonzero"/></clipPath><clipPath id="c9907656f4"><path d="M 0.820312 0.347656 L 33.945312 0.347656 L 33.945312 33.472656 L 0.820312 33.472656 Z M 0.820312 0.347656 " clip-rule="nonzero"/></clipPath><clipPath id="2d8986e1bc"><path d="M 17.382812 0.347656 C 8.234375 0.347656 0.820312 7.761719 0.820312 16.910156 C 0.820312 26.058594 8.234375 33.472656 17.382812 33.472656 C 26.527344 33.472656 33.945312 26.058594 33.945312 16.910156 C 33.945312 7.761719 26.527344 0.347656 17.382812 0.347656 Z M 17.382812 0.347656 " clip-rule="nonzero"/></clipPath><clipPath id="e7900c3b7f"><rect x="0" width="34" y="0" height="34"/></clipPath><clipPath id="2c99446b52"><path d="M 250.816406 267.113281 L 283.941406 267.113281 L 283.941406 300.238281 L 250.816406 300.238281 Z M 250.816406 267.113281 " clip-rule="nonzero"/></clipPath><clipPath id="b0d942e3d5"><path d="M 267.378906 267.113281 C 258.230469 267.113281 250.816406 274.53125 250.816406 283.675781 C 250.816406 292.824219 258.230469 300.238281 267.378906 300.238281 C 276.527344 300.238281 283.941406 292.824219 283.941406 283.675781 C 283.941406 274.53125 276.527344 267.113281 267.378906 267.113281 Z M 267.378906 267.113281 " clip-rule="nonzero"/></clipPath><clipPath id="d0a7f129d3"><path d="M 0.816406 0.113281 L 33.941406 0.113281 L 33.941406 33.238281 L 0.816406 33.238281 Z M 0.816406 0.113281 " clip-rule="nonzero"/></clipPath><clipPath id="42d9396e23"><path d="M 17.378906 0.113281 C 8.230469 0.113281 0.816406 7.53125 0.816406 16.675781 C 0.816406 25.824219 8.230469 33.238281 17.378906 33.238281 C 26.527344 33.238281 33.941406 25.824219 33.941406 16.675781 C 33.941406 7.53125 26.527344 0.113281 17.378906 0.113281 Z M 17.378906 0.113281 " clip-rule="nonzero"/></clipPath><clipPath id="080b3c266f"><rect x="0" width="34" y="0" height="34"/></clipPath><clipPath id="b603af6755"><path d="M 269.226562 227.691406 L 302.351562 227.691406 L 302.351562 260.816406 L 269.226562 260.816406 Z M 269.226562 227.691406 " clip-rule="nonzero"/></clipPath><clipPath id="fe449dacda"><path d="M 285.789062 227.691406 C 276.644531 227.691406 269.226562 235.105469 269.226562 244.253906 C 269.226562 253.398438 276.644531 260.816406 285.789062 260.816406 C 294.9375 260.816406 302.351562 253.398438 302.351562 244.253906 C 302.351562 235.105469 294.9375 227.691406 285.789062 227.691406 Z M 285.789062 227.691406 " clip-rule="nonzero"/></clipPath><clipPath id="112bbcb377"><path d="M 0.226562 0.691406 L 33.351562 0.691406 L 33.351562 33.816406 L 0.226562 33.816406 Z M 0.226562 0.691406 " clip-rule="nonzero"/></clipPath><clipPath id="8d16d2d501"><path d="M 16.789062 0.691406 C 7.644531 0.691406 0.226562 8.105469 0.226562 17.253906 C 0.226562 26.398438 7.644531 33.816406 16.789062 33.816406 C 25.9375 33.816406 33.351562 26.398438 33.351562 17.253906 C 33.351562 8.105469 25.9375 0.691406 16.789062 0.691406 Z M 16.789062 0.691406 " clip-rule="nonzero"/></clipPath><clipPath id="e0cd72e735"><rect x="0" width="34" y="0" height="34"/></clipPath><clipPath id="f8d8174c08"><path d="M 281.496094 188.335938 L 314.621094 188.335938 L 314.621094 221.460938 L 281.496094 221.460938 Z M 281.496094 188.335938 " clip-rule="nonzero"/></clipPath><clipPath id="6ea6531a45"><path d="M 298.058594 188.335938 C 288.914062 188.335938 281.496094 195.753906 281.496094 204.898438 C 281.496094 214.046875 288.914062 221.460938 298.058594 221.460938 C 307.207031 221.460938 314.621094 214.046875 314.621094 204.898438 C 314.621094 195.753906 307.207031 188.335938 298.058594 188.335938 Z M 298.058594 188.335938 " clip-rule="nonzero"/></clipPath><clipPath id="a0d3023e75"><path d="M 0.496094 0.335938 L 33.621094 0.335938 L 33.621094 33.460938 L 0.496094 33.460938 Z M 0.496094 0.335938 " clip-rule="nonzero"/></clipPath><clipPath id="1050dfb5b5"><path d="M 17.058594 0.335938 C 7.914062 0.335938 0.496094 7.753906 0.496094 16.898438 C 0.496094 26.046875 7.914062 33.460938 17.058594 33.460938 C 26.207031 33.460938 33.621094 26.046875 33.621094 16.898438 C 33.621094 7.753906 26.207031 0.335938 17.058594 0.335938 Z M 17.058594 0.335938 " clip-rule="nonzero"/></clipPath><clipPath id="309672dc2a"><rect x="0" width="34" y="0" height="34"/></clipPath><clipPath id="6e5b2f0868"><path d="M 294.429688 149.210938 L 327.554688 149.210938 L 327.554688 182.335938 L 294.429688 182.335938 Z M 294.429688 149.210938 " clip-rule="nonzero"/></clipPath><clipPath id="68e983ee71"><path d="M 310.992188 149.210938 C 301.84375 149.210938 294.429688 156.625 294.429688 165.773438 C 294.429688 174.921875 301.84375 182.335938 310.992188 182.335938 C 320.140625 182.335938 327.554688 174.921875 327.554688 165.773438 C 327.554688 156.625 320.140625 149.210938 310.992188 149.210938 Z M 310.992188 149.210938 " clip-rule="nonzero"/></clipPath><clipPath id="ec66af7a11"><path d="M 0.429688 0.210938 L 33.554688 0.210938 L 33.554688 33.335938 L 0.429688 33.335938 Z M 0.429688 0.210938 " clip-rule="nonzero"/></clipPath><clipPath id="c1e89c5b13"><path d="M 16.992188 0.210938 C 7.84375 0.210938 0.429688 7.625 0.429688 16.773438 C 0.429688 25.921875 7.84375 33.335938 16.992188 33.335938 C 26.140625 33.335938 33.554688 25.921875 33.554688 16.773438 C 33.554688 7.625 26.140625 0.210938 16.992188 0.210938 Z M 16.992188 0.210938 " clip-rule="nonzero"/></clipPath><clipPath id="c6603d8f4a"><rect x="0" width="34" y="0" height="34"/></clipPath><clipPath id="ab459b1c31"><path d="M 307.367188 110.085938 L 340.492188 110.085938 L 340.492188 143.210938 L 307.367188 143.210938 Z M 307.367188 110.085938 " clip-rule="nonzero"/></clipPath><clipPath id="b4c9c1a164"><path d="M 323.929688 110.085938 C 314.785156 110.085938 307.367188 117.5 307.367188 126.648438 C 307.367188 135.796875 314.785156 143.210938 323.929688 143.210938 C 333.078125 143.210938 340.492188 135.796875 340.492188 126.648438 C 340.492188 117.5 333.078125 110.085938 323.929688 110.085938 Z M 323.929688 110.085938 " clip-rule="nonzero"/></clipPath><clipPath id="a5619e87eb"><path d="M 0.367188 0.0859375 L 33.492188 0.0859375 L 33.492188 33.210938 L 0.367188 33.210938 Z M 0.367188 0.0859375 " clip-rule="nonzero"/></clipPath><clipPath id="d281c35b31"><path d="M 16.929688 0.0859375 C 7.785156 0.0859375 0.367188 7.5 0.367188 16.648438 C 0.367188 25.796875 7.785156 33.210938 16.929688 33.210938 C 26.078125 33.210938 33.492188 25.796875 33.492188 16.648438 C 33.492188 7.5 26.078125 0.0859375 16.929688 0.0859375 Z M 16.929688 0.0859375 " clip-rule="nonzero"/></clipPath><clipPath id="1727c5cd5e"><rect x="0" width="34" y="0" height="34"/></clipPath><clipPath id="30f47e2fa7"><path d="M 313.351562 56.308594 L 364.09375 56.308594 L 364.09375 107.050781 L 313.351562 107.050781 Z M 313.351562 56.308594 " clip-rule="nonzero"/></clipPath><clipPath id="3fddd387ae"><path d="M 338.722656 56.308594 C 324.710938 56.308594 313.351562 67.667969 313.351562 81.679688 C 313.351562 95.691406 324.710938 107.050781 338.722656 107.050781 C 352.734375 107.050781 364.09375 95.691406 364.09375 81.679688 C 364.09375 67.667969 352.734375 56.308594 338.722656 56.308594 Z M 338.722656 56.308594 " clip-rule="nonzero"/></clipPath><clipPath id="e6c489b7e2"><path d="M 0.351562 0.308594 L 51.09375 0.308594 L 51.09375 51.050781 L 0.351562 51.050781 Z M 0.351562 0.308594 " clip-rule="nonzero"/></clipPath><clipPath id="b31fde2872"><path d="M 25.722656 0.308594 C 11.710938 0.308594 0.351562 11.667969 0.351562 25.679688 C 0.351562 39.691406 11.710938 51.050781 25.722656 51.050781 C 39.734375 51.050781 51.09375 39.691406 51.09375 25.679688 C 51.09375 11.667969 39.734375 0.308594 25.722656 0.308594 Z M 25.722656 0.308594 " clip-rule="nonzero"/></clipPath><clipPath id="9ce8d7d47d"><rect x="0" width="52" y="0" height="52"/></clipPath></defs><g clip-path="url(#a3c53ba858)"><g clip-path="url(#d33ba2540d)"><g transform="matrix(1, 0, 0, 1, 64, 192)"><g clip-path="url(#ab3121bf5f)"><g clip-path="url(#4ae74f7609)"><g clip-path="url(#0708f68016)"><path fill="#64748b" d="M 0.472656 0 L 33.597656 0 L 33.597656 33.125 L 0.472656 33.125 Z M 0.472656 0 " fill-opacity="1" fill-rule="nonzero"/></g></g></g></g></g></g><g clip-path="url(#51ba94ecb5)"><g clip-path="url(#400ee57e1f)"><g transform="matrix(1, 0, 0, 1, 78, 230)"><g clip-path="url(#8f154ca809)"><g clip-path="url(#c42c1e7410)"><g clip-path="url(#cb7e8093ce)"><path fill="#5b3df5" d="M 0.78125 0.347656 L 33.90625 0.347656 L 33.90625 33.472656 L 0.78125 33.472656 Z M 0.78125 0.347656 " fill-opacity="1" fill-rule="nonzero"/></g></g></g></g></g></g><g clip-path="url(#57320e8bd0)"><g clip-path="url(#bc230b2ac9)"><g transform="matrix(1, 0, 0, 1, 97, 267)"><g clip-path="url(#923c3c62bf)"><g clip-path="url(#f0d8684c52)"><g clip-path="url(#18860ae549)"><path fill="#1e293b" d="M 0.597656 0.113281 L 33.722656 0.113281 L 33.722656 33.238281 L 0.597656 33.238281 Z M 0.597656 0.113281 " fill-opacity="1" fill-rule="nonzero"/></g></g></g></g></g></g><g clip-path="url(#153bc93caa)"><g clip-path="url(#035c434d83)"><g transform="matrix(1, 0, 0, 1, 122, 230)"><g clip-path="url(#a69bf18017)"><g clip-path="url(#d4c36a6470)"><g clip-path="url(#f3638f6600)"><path fill="#5b3df5" d="M 0.371094 0.347656 L 33.496094 0.347656 L 33.496094 33.472656 L 0.371094 33.472656 Z M 0.371094 0.347656 " fill-opacity="1" fill-rule="nonzero"/></g></g></g></g></g></g><g clip-path="url(#bcd55bd7bc)"><g clip-path="url(#cc5cd76d88)"><g transform="matrix(1, 0, 0, 1, 138, 192)"><g clip-path="url(#e2c84b56db)"><g clip-path="url(#e63913ee7f)"><g clip-path="url(#aac2729f9f)"><path fill="#5b3df5" d="M 0.933594 0 L 34.0625 0 L 34.0625 33.125 L 0.933594 33.125 Z M 0.933594 0 " fill-opacity="1" fill-rule="nonzero"/></g></g></g></g></g></g><g clip-path="url(#b958a926de)"><g clip-path="url(#a23d88b8d7)"><g transform="matrix(1, 0, 0, 1, 157, 155)"><g clip-path="url(#649db29601)"><g clip-path="url(#5203904f71)"><g clip-path="url(#7190cccbd4)"><path fill="#1e293b" d="M 0.273438 0.210938 L 33.402344 0.210938 L 33.402344 33.335938 L 0.273438 33.335938 Z M 0.273438 0.210938 " fill-opacity="1" fill-rule="nonzero"/></g></g></g></g></g></g><g clip-path="url(#dbb149283e)"><g clip-path="url(#fae31b0ff8)"><g transform="matrix(1, 0, 0, 1, 175, 119)"><g clip-path="url(#8478ce14e8)"><g clip-path="url(#a1bfa2c97d)"><g clip-path="url(#39f126227b)"><path fill="#5b3df5" d="M 0.4375 0.980469 L 33.5625 0.980469 L 33.5625 34.105469 L 0.4375 34.105469 Z M 0.4375 0.980469 " fill-opacity="1" fill-rule="nonzero"/></g></g></g></g></g></g><g clip-path="url(#dceb1c3178)"><g clip-path="url(#33837e1ecc)"><g transform="matrix(1, 0, 0, 1, 195, 157)"><g clip-path="url(#e9149dc079)"><g clip-path="url(#910344a79f)"><g clip-path="url(#e247936796)"><path fill="#5b3df5" d="M 0.625 0.273438 L 33.75 0.273438 L 33.75 33.398438 L 0.625 33.398438 Z M 0.625 0.273438 " fill-opacity="1" fill-rule="nonzero"/></g></g></g></g></g></g><g clip-path="url(#86f78593e1)"><g clip-path="url(#e3f5561615)"><g transform="matrix(1, 0, 0, 1, 213, 194)"><g clip-path="url(#a43051c030)"><g clip-path="url(#d101d2d86b)"><g clip-path="url(#ff4845c4cb)"><path fill="#1e293b" d="M 0.253906 0.5625 L 33.382812 0.5625 L 33.382812 33.691406 L 0.253906 33.691406 Z M 0.253906 0.5625 " fill-opacity="1" fill-rule="nonzero"/></g></g></g></g></g></g><g clip-path="url(#8ca96c37f4)"><g clip-path="url(#b08b8b4c52)"><g transform="matrix(1, 0, 0, 1, 229, 230)"><g clip-path="url(#e7900c3b7f)"><g clip-path="url(#c9907656f4)"><g clip-path="url(#2d8986e1bc)"><path fill="#5b3df5" d="M 0.820312 0.347656 L 33.945312 0.347656 L 33.945312 33.472656 L 0.820312 33.472656 Z M 0.820312 0.347656 " fill-opacity="1" fill-rule="nonzero"/></g></g></g></g></g></g><g clip-path="url(#2c99446b52)"><g clip-path="url(#b0d942e3d5)"><g transform="matrix(1, 0, 0, 1, 250, 267)"><g clip-path="url(#080b3c266f)"><g clip-path="url(#d0a7f129d3)"><g clip-path="url(#42d9396e23)"><path fill="#5b3df5" d="M 0.816406 0.113281 L 33.941406 0.113281 L 33.941406 33.238281 L 0.816406 33.238281 Z M 0.816406 0.113281 " fill-opacity="1" fill-rule="nonzero"/></g></g></g></g></g></g><g clip-path="url(#b603af6755)"><g clip-path="url(#fe449dacda)"><g transform="matrix(1, 0, 0, 1, 269, 227)"><g clip-path="url(#e0cd72e735)"><g clip-path="url(#112bbcb377)"><g clip-path="url(#8d16d2d501)"><path fill="#5b3df5" d="M 0.226562 0.691406 L 33.351562 0.691406 L 33.351562 33.816406 L 0.226562 33.816406 Z M 0.226562 0.691406 " fill-opacity="1" fill-rule="nonzero"/></g></g></g></g></g></g><g clip-path="url(#f8d8174c08)"><g clip-path="url(#6ea6531a45)"><g transform="matrix(1, 0, 0, 1, 281, 188)"><g clip-path="url(#309672dc2a)"><g clip-path="url(#a0d3023e75)"><g clip-path="url(#1050dfb5b5)"><path fill="#1e293b" d="M 0.496094 0.335938 L 33.621094 0.335938 L 33.621094 33.460938 L 0.496094 33.460938 Z M 0.496094 0.335938 " fill-opacity="1" fill-rule="nonzero"/></g></g></g></g></g></g><g clip-path="url(#6e5b2f0868)"><g clip-path="url(#68e983ee71)"><g transform="matrix(1, 0, 0, 1, 294, 149)"><g clip-path="url(#c6603d8f4a)"><g clip-path="url(#ec66af7a11)"><g clip-path="url(#c1e89c5b13)"><path fill="#5b3df5" d="M 0.429688 0.210938 L 33.554688 0.210938 L 33.554688 33.335938 L 0.429688 33.335938 Z M 0.429688 0.210938 " fill-opacity="1" fill-rule="nonzero"/></g></g></g></g></g></g><g clip-path="url(#ab459b1c31)"><g clip-path="url(#b4c9c1a164)"><g transform="matrix(1, 0, 0, 1, 307, 110)"><g clip-path="url(#1727c5cd5e)"><g clip-path="url(#a5619e87eb)"><g clip-path="url(#d281c35b31)"><path fill="#5b3df5" d="M 0.367188 0.0859375 L 33.492188 0.0859375 L 33.492188 33.210938 L 0.367188 33.210938 Z M 0.367188 0.0859375 " fill-opacity="1" fill-rule="nonzero"/></g></g></g></g></g></g><g clip-path="url(#30f47e2fa7)"><g clip-path="url(#3fddd387ae)"><g transform="matrix(1, 0, 0, 1, 313, 56)"><g clip-path="url(#9ce8d7d47d)"><g clip-path="url(#e6c489b7e2)"><g clip-path="url(#b31fde2872)"><path fill="#64748b" d="M 0.351562 0.308594 L 51.09375 0.308594 L 51.09375 51.050781 L 0.351562 51.050781 Z M 0.351562 0.308594 " fill-opacity="1" fill-rule="nonzero"/></g></g></g></g></g></g></svg>